<?xml version="1.0" encoding="utf-8"?>
<!-- Generator: Adobe Illustrator 16.0.3, SVG Export Plug-In . SVG Version: 6.00 Build 0)  -->
<!DOCTYPE svg PUBLIC "-//W3C//DTD SVG 1.1//EN" "http://www.w3.org/Graphics/SVG/1.1/DTD/svg11.dtd">
<svg version="1.1" id="Calque_1" xmlns="http://www.w3.org/2000/svg" xmlns:xlink="http://www.w3.org/1999/xlink" x="0px" y="0px"
	 width="200px" height="200px" viewBox="0 0 200 200" enable-background="new 0 0 200 200" xml:space="preserve">
<path d="M56.478,160.499v-5.28h8.185v-4.093h-8.185v-4.62h8.68v-4.126h-13.73v22.245H65.62v-4.126H56.478z M65.12,164.125H51.928
	V142.88h12.73v3.126h-8.68v5.62h8.185v3.093h-8.185v6.28h9.142V164.125z"/>
<path d="M78.49,156.176l5.314-7.69h-5.446l-1.419,2.607c-0.429,0.792-0.825,1.617-1.254,2.476h-0.066
	c-0.429-0.759-0.858-1.584-1.32-2.409l-1.584-2.674h-5.611l5.347,7.922l-5.479,8.218h5.512l1.518-2.904
	c0.396-0.792,0.825-1.584,1.221-2.442h0.099c0.396,0.825,0.792,1.65,1.254,2.442l1.617,2.904h5.676L78.49,156.176z M77.013,161.478
	c-0.458-0.783-0.855-1.613-1.241-2.416l-0.136-0.283h-0.634l-0.233,0.291c-0.262,0.567-0.539,1.106-0.811,1.636l-0.403,0.792
	l-1.374,2.628h-4.275l5.146-7.72l-5.008-7.42h4.385l1.439,2.429c0.214,0.384,0.428,0.777,0.637,1.164
	c0.229,0.424,0.454,0.839,0.678,1.236l0.144,0.254h0.601l0.205-0.276l0.313-0.632c0.311-0.629,0.612-1.238,0.933-1.829l1.277-2.346
	h4.196l-4.961,7.179l5.068,7.961h-4.471L77.013,161.478z"/>
<g>
	<path d="M94.132,151.55c-1.646,0-3.114,1.233-3.492,2.934c-0.069,0.278-0.11,0.646-0.11,0.999v2.212
		c0,0.434,0.038,0.836,0.11,1.163c0.398,1.635,1.806,2.77,3.426,2.77c2.409,0,3.966-1.984,3.966-5.055
		C98.031,153.521,96.5,151.55,94.132,151.55z M94.065,161.127c-1.452,0-2.607-1.023-2.938-2.377
		c-0.065-0.297-0.099-0.66-0.099-1.056v-2.212c0-0.297,0.033-0.627,0.099-0.891c0.33-1.485,1.584-2.542,3.004-2.542
		c2.244,0,3.399,1.947,3.399,4.522C97.531,159.312,96.244,161.127,94.065,161.127z"/>
	<path d="M95.914,148.123c-2.344,0-4.192,0.891-5.38,2.607h-0.066l-0.23-2.245H85.88c0.066,1.485,0.133,3.301,0.133,5.413v17.262
		h5.017v-8.021h0.065c0.727,1.057,2.245,1.849,4.192,1.849c3.597,0,7.326-2.772,7.326-8.647
		C102.613,151.192,99.445,148.123,95.914,148.123z M95.287,164.488c-1.64,0-3.088-0.625-3.78-1.632l-0.149-0.217h-0.763l-0.065,0.5
		v7.521h-4.017v-16.762c0-1.913-0.055-3.592-0.111-4.913h3.384l0.23,2.245h0.713l0.215-0.216c1.098-1.587,2.77-2.392,4.969-2.392
		c3.081,0,6.199,2.651,6.199,7.718C102.113,161.938,98.575,164.488,95.287,164.488z"/>
</g>
<path d="M105.746,141.191v23.434h5.017v-23.434H105.746z M110.263,164.125h-4.017v-22.434h4.017V164.125z"/>
<g>
	<path d="M122.511,148.123c-5.182,0-8.614,3.333-8.614,8.548s3.631,8.317,8.351,8.317c4.323,0,8.515-2.707,8.515-8.614
		C130.762,151.522,127.462,148.123,122.511,148.123z M122.247,164.488c-4.695,0-7.851-3.142-7.851-7.817
		c0-4.889,3.185-8.048,8.114-8.048c4.636,0,7.751,3.115,7.751,7.751C130.262,162.363,125.944,164.488,122.247,164.488z"/>
	<path d="M122.379,151.188c-2.803,0-3.801,2.765-3.801,5.352c0,3.251,1.492,5.352,3.801,5.352c2.214,0,3.701-2.15,3.701-5.352
		C126.08,153.288,124.627,151.188,122.379,151.188z M122.379,161.391c-2.146,0-3.301-2.079-3.301-4.852
		c0-2.377,0.892-4.852,3.301-4.852c2.277,0,3.201,2.442,3.201,4.852C125.58,159.443,124.326,161.391,122.379,161.391z"/>
</g>
<path d="M142.707,148.123c-1.551,0-3.531,0.989-4.356,3.333h-0.132l-0.165-2.971h-4.324c0.066,1.387,0.133,2.938,0.133,5.314v10.825
	h5.017v-8.186c0-0.396,0.033-0.792,0.099-1.122c0.33-1.551,1.584-2.541,3.433-2.541c0.562,0,0.99,0.066,1.354,0.132v-4.72
	C143.4,148.123,143.169,148.123,142.707,148.123z M143.264,152.326c-0.254-0.03-0.534-0.05-0.854-0.05
	c-2.033,0-3.536,1.125-3.922,2.937c-0.072,0.364-0.109,0.786-0.109,1.227v7.686h-4.017V153.8c0-2.068-0.051-3.533-0.108-4.814h3.327
	l0.165,2.971h0.959l0.117-0.334c0.729-2.071,2.477-2.999,3.885-2.999c0.235,0,0.403,0,0.557,0.009V152.326z"/>
<g>
	<path d="M153.068,150.956c-2.236,0-3.42,1.868-3.601,3.719l-0.053,0.549h6.991v-0.5
		C156.406,152.985,155.532,150.956,153.068,150.956z M149.966,154.724c0.132-1.354,0.99-3.268,3.103-3.268
		c2.311,0,2.838,2.046,2.838,3.268H149.966z"/>
	<path d="M160.561,156.176c0-3.993-1.98-8.053-7.195-8.053c-5.61,0-8.152,4.521-8.152,8.614c0,5.049,3.136,8.218,8.614,8.218
		c2.179,0,4.191-0.33,5.842-0.99l-0.66-3.399c-1.353,0.429-2.739,0.66-4.455,0.66c-2.344,0-4.39-0.99-4.555-3.069h10.396
		C160.461,157.793,160.561,157.034,160.561,156.176z M159.965,157.656h-10.507l0.043,0.54c0.17,2.144,2.153,3.529,5.053,3.529
		c1.468,0,2.775-0.168,4.069-0.524l0.475,2.445c-1.492,0.529-3.304,0.809-5.271,0.809c-5.081,0-8.114-2.885-8.114-7.718
		c0-3.908,2.395-8.114,7.652-8.114c4.937,0,6.695,3.901,6.695,7.553C160.061,156.779,160.01,157.308,159.965,157.656z"/>
</g>
</svg>
